{"title":"Spirit Stallion of the Cimarron (2002) DvDRiP XviD","uid":8013169,"size":733969457,"categoryP":"video","categoryS":"movies","magnet":"?xt=urn:btih:0fde2ad45f58fe1d544f5f873d0ecdc48333b728&amp;dn=Spirit+Stallion+of+the+Cimarron+%282002%29+DvDRiP+XviD+&amp;tr=udp%3A%2F%2Ftracker.openbittorrent.com%3A80&amp;tr=udp%3A%2F%2Fopen.demonii.com%3A1337&amp;tr=udp%3A%2F%2Ftracker.coppersurfer.tk%3A6969&amp;tr=udp%3A%2F%2Fexodus.desync.com%3A6969","seeders":1,"leechers":0,"uploader":"ihab9876","files":3,"time":1358041711,"description":"Uploaded by:ihab9876\n\n_____________________________________________________\n\nFormat                         : AVI\nFormat/Info                    : Audio Video Interleave\nFile size                      : 700 MiB\nDuration                       : 1h 20mn\nOverall bit rate               : 1 223 Kbps\n\nVideo\nID                             : 0\nFormat                         : MPEG-4 Visual\nFormat profile                 : Advanced Simple@L5\nFormat settings, BVOP          : 2\nFormat settings, QPel          : No\nFormat settings, GMC           : No warppoints\nFormat settings, Matrix        : Default (H.263)\nMuxing mode                    : Packed bitstream\nCodec ID                       : XVID\nCodec ID/Hint                  : XviD\nDuration                       : 1h 20mn\nBit rate                       : 1 025 Kbps\nWidth                          : 640 pixels\nHeight                         : 272 pixels\nDisplay aspect ratio           : 2.35:1\nFrame rate                     : 25.000 fps\nColor space                    : YUV\nChroma subsampling             : 4:2:0\nBit depth                      : 8 bits\nScan type                      : Progressive\nCompression mode               : Lossy\nBits/(Pixel*Frame)             : 0.235\nStream size                    : 587 MiB (84%)\nWriting library                : XviD 1.2.1 (UTC 2008-12-04)\n\nAudio\nID                             : 1\nFormat                         : MPEG Audio\nFormat version                 : Version 1\nFormat profile                 : Layer 3\nMode                           : Joint stereo\nMode extension                 : MS Stereo\nCodec ID                       : 55\nCodec ID/Hint                  : MP3\nDuration                       : 1h 20mn\nBit rate mode                  : Constant\nBit rate                       : 192 Kbps\nChannel(s)                     : 2 channels\nSampling rate                  : 48.0 KHz\nCompression mode               : Lossy\nStream size                    : 110 MiB (16%)\nAlignment                      : Aligned on interleaves\nInterleave, duration           : 160 ms (4.00 video frames)\nInterleave, preload duration   : 216 ms","torrent":{"xt":"urn:btih:0fde2ad45f58fe1d544f5f873d0ecdc48333b728","amp;dn":"Spirit+Stallion+of+the+Cimarron+%282002%29+DvDRiP+XviD+","amp;tr":["udp%3A%2F%2Ftracker.openbittorrent.com%3A80","udp%3A%2F%2Fopen.demonii.com%3A1337","udp%3A%2F%2Ftracker.coppersurfer.tk%3A6969","udp%3A%2F%2Fexodus.desync.com%3A6969"],"infoHash":"0fde2ad45f58fe1d544f5f873d0ecdc48333b728","infoHashBuffer":{"type":"Buffer","data":[15,222,42,212,95,88,254,29,84,79,95,135,61,14,205,196,131,51,183,40]},"announce":[],"urlList":[]}}